<svg viewBox="0 0 300 64" xmlns="http://www.w3.org/2000/svg" role="img" aria-label="甘肃新煜科技">
  <defs>
    <linearGradient id="xyg" x1="0" y1="0" x2="1" y2="1">
      <stop offset="0" stop-color="#ffb347"/>
      <stop offset="1" stop-color="#ff6b35"/>
    </linearGradient>
    <radialGradient id="xys" cx="0.5" cy="0.45" r="0.62">
      <stop offset="0" stop-color="#ffe3b0"/>
      <stop offset="0.55" stop-color="#ff8c1a"/>
      <stop offset="1" stop-color="#ff6b35"/>
    </radialGradient>
  </defs>
  <g transform="translate(0,0)">
    <path d="M32 3 L57.1 17.5 L57.1 46.5 L32 61 L6.9 46.5 L6.9 17.5 Z" fill="none" stroke="url(#xyg)" stroke-width="2.6" stroke-linejoin="round"/>
    <path d="M23 21 L32 11 L41 21" fill="none" stroke="url(#xyg)" stroke-width="3.2" stroke-linecap="round" stroke-linejoin="round"/>
    <circle cx="32" cy="39" r="8.5" fill="url(#xys)"/>
    <g stroke="#ff8c1a" stroke-width="2" stroke-linecap="round">
      <line x1="43" y1="39" x2="46.5" y2="39"/>
      <line x1="39.78" y1="46.22" x2="42.27" y2="49.71"/>
      <line x1="32" y1="50" x2="32" y2="53.5"/>
      <line x1="24.22" y1="46.22" x2="21.73" y2="49.71"/>
      <line x1="21" y1="39" x2="17.5" y2="39"/>
      <line x1="24.22" y1="31.78" x2="21.73" y2="28.29"/>
      <line x1="39.78" y1="31.78" x2="42.27" y2="28.29"/>
    </g>
  </g>
  <text x="72" y="30" font-family="-apple-system,BlinkMacSystemFont,'PingFang SC','Microsoft YaHei',sans-serif" font-size="22" font-weight="700" fill="#1c2230">甘肃新煜科技</text>
  <text x="73" y="48" font-family="-apple-system,BlinkMacSystemFont,'PingFang SC','Microsoft YaHei',sans-serif" font-size="10.5" letter-spacing="2" fill="#8a93a3">新能源 · 大交通 · 网约车 · 车销</text>
</svg>
